<svg width="48" height="48" viewBox="0 0 48 48" fill="none" xmlns="http://www.w3.org/2000/svg">
<path d="M31.8335 4.9872C31.6991 4.90027 31.5488 4.84109 31.3913 4.81312C31.2337 4.78516 31.0722 4.78897 30.9162 4.82435C30.7601 4.85972 30.6128 4.92594 30.4827 5.01911C30.3526 5.11228 30.2425 5.23052 30.1588 5.36687C30.0751 5.50322 30.0195 5.65493 29.9953 5.81308C29.9711 5.97123 29.9788 6.13262 30.0179 6.28777C30.0569 6.44291 30.1267 6.58868 30.2229 6.71648C30.3191 6.84429 30.44 6.95157 30.5783 7.032C35.9975 10.3536 40.4663 15.2256 40.8023 24.048C40.8215 24.3608 40.9624 24.6536 41.1948 24.8639C41.4271 25.0741 41.7325 25.1852 42.0456 25.1733C42.3587 25.1614 42.6548 25.0274 42.8705 24.8001C43.0862 24.5728 43.2044 24.2701 43.1999 23.9568C42.8231 14.1192 37.7327 8.6016 31.8335 4.9872ZM29.0063 11.3472C29.1846 11.0838 29.4602 10.9019 29.7725 10.8416C30.0848 10.7813 30.4083 10.8475 30.6719 11.0256C34.5287 13.6296 37.1879 17.3568 37.6031 21.6432C37.6415 22.0272 37.6607 22.4168 37.6607 22.812C37.6607 23.1303 37.5342 23.4355 37.3092 23.6605C37.0841 23.8856 36.7789 24.012 36.4607 24.012C36.1424 24.012 35.8372 23.8856 35.6121 23.6605C35.3871 23.4355 35.2607 23.1303 35.2607 22.812C35.2607 22.4952 35.2447 22.1832 35.2127 21.876C34.8863 18.4728 32.7551 15.3288 29.3279 13.0128C29.0644 12.8345 28.8826 12.5589 28.8223 12.2466C28.762 11.9342 28.8282 11.6108 29.0063 11.3472ZM12.1919 13.0512C9.19287 14.3876 6.84732 16.8603 5.67089 19.9256C4.49446 22.9909 4.58344 26.3979 5.91826 29.3976L8.85346 35.9952L9.06946 41.5632C9.08097 41.8569 9.16423 42.1433 9.31196 42.3974C9.4597 42.6515 9.66741 42.8656 9.91695 43.0209C10.1665 43.1762 10.4503 43.268 10.7435 43.2884C11.0367 43.3087 11.3305 43.257 11.5991 43.1376L34.9439 32.7456C35.2127 32.626 35.4481 32.4424 35.6295 32.2107C35.8109 31.9791 35.9327 31.7065 35.9844 31.4168C36.036 31.1272 36.0158 30.8293 35.9257 30.5492C35.8355 30.2692 35.678 30.0155 35.4671 29.8104L31.4735 25.9248L28.5359 19.3272C27.1994 16.3288 24.7272 13.9837 21.6624 12.8073C18.5977 11.6309 15.1913 11.7171 12.1919 13.0512ZM8.11186 28.4232C7.08642 26.0141 7.04882 23.2986 8.00716 20.8621C8.96551 18.4256 10.843 16.4633 13.2349 15.3983C15.6267 14.3334 18.3413 14.2511 20.7933 15.1693C23.2452 16.0874 25.2381 17.9324 26.3423 20.3064L29.4671 27.3264L33.1583 30.9144L11.4335 40.5864L11.2343 35.4432L8.11186 28.4232ZM25.6271 42.9048C24.8539 43.2483 23.9841 43.3066 23.172 43.0693C22.36 42.832 21.6584 42.3145 21.1919 41.6088L27.6359 38.7432C27.8475 39.5624 27.7618 40.4301 27.394 41.1921C27.0262 41.954 26.4001 42.5609 25.6271 42.9048Z" fill="black"/>
</svg>
