<svg width="28" height="28" viewBox="0 0 28 28" fill="none" xmlns="http://www.w3.org/2000/svg">
<path d="M14.0004 25.953C20.5279 25.953 25.9534 20.539 25.9534 14C25.9534 7.4725 20.5159 2.047 13.9884 2.047C7.44985 2.047 2.04785 7.4725 2.04785 14C2.04785 20.539 7.46135 25.953 14.0004 25.953ZM13.9894 15.758C13.3679 15.758 13.0284 15.3945 13.0044 14.773L12.8404 8.985C12.8169 8.34 13.3089 7.8835 13.9769 7.8835C14.6334 7.8835 15.1369 8.352 15.1139 8.9965L14.9494 14.774C14.9259 15.4065 14.5744 15.7585 13.9889 15.7585M13.9889 20.071C13.3089 20.071 12.6759 19.532 12.6759 18.805C12.6759 18.078 13.2974 17.54 13.9889 17.54C14.6684 17.54 15.3009 18.067 15.3009 18.805C15.3009 19.5435 14.6564 20.071 13.9889 20.071Z" fill="#9D9D9D"/>
</svg>
