<svg width="17" height="15" viewBox="0 0 17 15" fill="none" xmlns="http://www.w3.org/2000/svg">
<path d="M0 13.3193V4.36975C0 4.01961 0.0957667 3.70448 0.2873 3.42437C0.478833 3.14426 0.737233 2.94118 1.0625 2.81513L7.8625 0.12605C8.06083 0.0420167 8.27333 0 8.5 0C8.72667 0 8.93917 0.0420167 9.1375 0.12605L15.9375 2.81513C16.2633 2.94118 16.522 3.14426 16.7135 3.42437C16.9051 3.70448 17.0006 4.01961 17 4.36975V13.3193C17 13.7815 16.8337 14.1773 16.501 14.5067C16.1684 14.8361 15.7681 15.0006 15.3 15H11.9V8.27731H5.1V15H1.7C1.2325 15 0.832433 14.8356 0.4998 14.5067C0.167167 14.1779 0.000566667 13.7821 0 13.3193ZM5.95 15V13.3193H7.65V15H5.95ZM7.65 12.479V10.7983H9.35V12.479H7.65ZM9.35 15V13.3193H11.05V15H9.35Z" fill="black"/>
</svg>
