<svg width="17" height="17" viewBox="0 0 17 17" fill="none" xmlns="http://www.w3.org/2000/svg">
<path fill-rule="evenodd" clip-rule="evenodd" d="M2.08891 0H5.08198C5.20371 0 5.32254 0.0373818 5.42263 0.107158C5.52271 0.176933 5.59929 0.275785 5.64213 0.390524L6.80393 3.50025C6.84223 3.60309 6.85188 3.71451 6.83186 3.82247L6.24937 6.96594C6.96512 8.65982 8.14687 9.79845 10.1058 10.8198L13.1898 10.2171C13.2994 10.1958 13.4128 10.2058 13.517 10.246L16.6146 11.4353C16.7278 11.4787 16.8253 11.5557 16.8941 11.6562C16.9629 11.7566 16.9999 11.8757 17 11.9978V14.8777C17 16.1842 15.8574 17.2441 14.52 16.9508C12.0839 16.4173 7.56996 15.0601 4.40852 11.8764C1.37954 8.82696 0.364565 4.61477 0.0238453 2.33832C-0.17165 1.03818 0.863277 0 2.08891 0Z" fill="black"/>
</svg>
