<svg width="44" height="44" viewBox="0 0 44 44" fill="none" xmlns="http://www.w3.org/2000/svg">
<path d="M5.5 0.916672H38.5M5.5 43.0833H38.5M10.0833 43.0833V32.0833L15.3193 28.941C16.518 28.2219 17.5101 27.2046 18.1988 25.9883C18.8876 24.7719 19.2496 23.3979 19.2496 22C19.2496 20.6022 18.8876 19.2281 18.1988 18.0118C17.5101 16.7954 16.518 15.7781 15.3193 15.059L10.0833 11.9167V0.916672M33.9167 0.916672V11.9167L28.6807 15.059C27.4824 15.7785 26.4908 16.7958 25.8024 18.0122C25.114 19.2285 24.7521 20.6024 24.7521 22C24.7521 23.3977 25.114 24.7715 25.8024 25.9878C26.4908 27.2042 27.4824 28.2216 28.6807 28.941L33.9167 32.0833V43.0833" stroke="black"/>
</svg>
