<svg width="43" height="43" viewBox="0 0 43 43" fill="none" xmlns="http://www.w3.org/2000/svg">
<g clip-path="url(#clip0_889_119)">
<path d="M1.34375 41.6562H41.6562M7.48917 16.555L36.2812 3.47583M36.2812 3.47583L34.1492 9.19125M36.2812 3.47583L30.5837 1.34375M10.75 29.1146H5.375C5.02006 29.1192 4.68096 29.2623 4.42996 29.5133C4.17895 29.7643 4.03589 30.1034 4.03125 30.4583V41.6562H12.0937V30.4583C12.0891 30.1034 11.946 29.7643 11.695 29.5133C11.444 29.2623 11.1049 29.1192 10.75 29.1146ZM24.1875 21.9479H18.8125C18.4576 21.9526 18.1185 22.0956 17.8675 22.3466C17.6165 22.5976 17.4734 22.9367 17.4687 23.2917V41.6562H25.5312V23.2917C25.5266 22.9367 25.3835 22.5976 25.1325 22.3466C24.8815 22.0956 24.5424 21.9526 24.1875 21.9479ZM37.625 14.7812H32.25C31.8951 14.7859 31.556 14.929 31.305 15.18C31.054 15.431 30.9109 15.7701 30.9062 16.125V41.6562H38.9687V16.125C38.9641 15.7701 38.821 15.431 38.57 15.18C38.319 14.929 37.9799 14.7859 37.625 14.7812Z" stroke="black" stroke-width="1.5" stroke-linecap="round" stroke-linejoin="round"/>
</g>
<defs>
<clipPath id="clip0_889_119">
<rect width="43" height="43" fill="white"/>
</clipPath>
</defs>
</svg>
